<?xml version="1.0" encoding="utf-8"?>
<!-- Generator: Adobe Illustrator 24.0.3, SVG Export Plug-In . SVG Version: 6.00 Build 0)  -->
<svg version="1.1" xmlns="http://www.w3.org/2000/svg" xmlns:xlink="http://www.w3.org/1999/xlink" x="0px" y="0px"
	 viewBox="0 0 2048 2048" style="enable-background:new 0 0 2048 2048;" xml:space="preserve">
<style type="text/css">
	.st0{display:none;}
	.st1{display:inline;}
	.st2{fill:#E9D4C9;}
	.st3{fill:#CA4767;}
	.st4{font-family:'AvenirNext-Regular';}
	.st5{font-size:450px;}
	.st6{letter-spacing:4;}
</style>
<g id="Layer_1" class="st0">
	<g class="st1">
		<rect class="st2" width="2048" height="2048"/>
	</g>
</g>
<g id="Layer_2">
	<g>
		<path class="st3" d="M917.94,767.31c-66.12,0-119.72-53.6-119.72-119.72c0-35.23,15.22-66.9,39.43-88.8
			c-57.91,15.85-100.48,68.83-100.48,131.77c0,75.45,61.16,136.61,136.61,136.61c61.64,0,113.74-40.82,130.75-96.91
			C982.73,753.09,952,767.31,917.94,767.31z"/>
		<path class="st3" d="M1063.6,843.56c0,66.12-53.6,119.72-119.72,119.72c-35.23,0-66.9-15.22-88.8-39.43
			c15.85,57.91,68.83,100.48,131.77,100.48c75.45,0,136.61-61.16,136.61-136.61c0-61.64-40.82-113.74-96.91-130.75
			C1049.38,778.77,1063.6,809.5,1063.6,843.56z"/>
		<path class="st3" d="M1130.06,698.96c66.12,0,119.72,53.6,119.72,119.72c0,35.23-15.22,66.9-39.43,88.8
			c57.91-15.85,100.48-68.83,100.48-131.77c0-75.45-61.16-136.61-136.61-136.61c-61.64,0-113.74,40.82-130.75,96.91
			C1065.27,713.18,1096,698.96,1130.06,698.96z"/>
		<path class="st3" d="M978.35,631.32c0-66.12,53.6-119.72,119.72-119.72c35.23,0,66.9,15.22,88.8,39.43
			c-15.85-57.91-68.83-100.48-131.77-100.48c-75.45,0-136.61,61.16-136.61,136.61c0,61.64,40.82,113.74,96.91,130.75
			C992.57,696.11,978.35,665.37,978.35,631.32z"/>
	</g>
</g>
<g id="Layer_3">
	<text transform="matrix(1 0 0 1 205.0109 1429.3906)" class="st3 st4 st5 st6">FreshAir</text>
</g>
</svg>
